{
	"asset":{
		"generator":"Khronos glTF Blender I/O v4.5.49",
		"version":"2.0"
	},
	"extensionsUsed":[
		"KHR_materials_specular",
		"KHR_materials_ior"
	],
	"scene":0,
	"scenes":[
		{
			"name":"Scene",
			"nodes":[
				0
			]
		}
	],
	"nodes":[
		{
			"mesh":0,
			"name":"Cube",
			"rotation":[
				0,
				0.7071068286895752,
				0,
				0.7071068286895752
			],
			"scale":[
				0.050000011920928955,
				0.10000002384185791,
				0.03617924079298973
			]
		}
	],
	"materials":[
		{
			"doubleSided":true,
			"extensions":{
				"KHR_materials_specular":{
					"specularFactor":0.21259844303131104
				},
				"KHR_materials_ior":{
					"ior":1.4500000476837158
				}
			},
			"name":"PistolBlack",
			"pbrMetallicRoughness":{
				"baseColorFactor":[
					0.01590876094996929,
					0.01590876094996929,
					0.01590876094996929,
					1
				],
				"metallicFactor":0,
				"roughnessFactor":0.5
			}
		},
		{
			"doubleSided":true,
			"name":"PistolGray",
			"pbrMetallicRoughness":{
				"baseColorFactor":[
					0.10700275003910065,
					0.10700275003910065,
					0.10700275003910065,
					1
				],
				"metallicFactor":0,
				"roughnessFactor":0.5
			}
		}
	],
	"meshes":[
		{
			"name":"Cube",
			"primitives":[
				{
					"attributes":{
						"POSITION":0,
						"NORMAL":1,
						"TEXCOORD_0":2
					},
					"indices":3,
					"material":0
				},
				{
					"attributes":{
						"POSITION":4,
						"NORMAL":5,
						"TEXCOORD_0":6
					},
					"indices":7,
					"material":1
				}
			]
		}
	],
	"accessors":[
		{
			"bufferView":0,
			"componentType":5126,
			"count":158,
			"max":[
				4.999999046325684,
				1,
				1
			],
			"min":[
				-1.4161854982376099,
				-1,
				-1
			],
			"type":"VEC3"
		},
		{
			"bufferView":1,
			"componentType":5126,
			"count":158,
			"type":"VEC3"
		},
		{
			"bufferView":2,
			"componentType":5126,
			"count":158,
			"type":"VEC2"
		},
		{
			"bufferView":3,
			"componentType":5123,
			"count":246,
			"type":"SCALAR"
		},
		{
			"bufferView":4,
			"componentType":5126,
			"count":246,
			"max":[
				5.077912330627441,
				0.8090649843215942,
				0.5039657950401306
			],
			"min":[
				-1.7351059913635254,
				0.434975802898407,
				-0.5039657950401306
			],
			"type":"VEC3"
		},
		{
			"bufferView":5,
			"componentType":5126,
			"count":246,
			"type":"VEC3"
		},
		{
			"bufferView":6,
			"componentType":5126,
			"count":246,
			"type":"VEC2"
		},
		{
			"bufferView":7,
			"componentType":5123,
			"count":504,
			"type":"SCALAR"
		}
	],
	"bufferViews":[
		{
			"buffer":0,
			"byteLength":1896,
			"byteOffset":0,
			"target":34962
		},
		{
			"buffer":0,
			"byteLength":1896,
			"byteOffset":1896,
			"target":34962
		},
		{
			"buffer":0,
			"byteLength":1264,
			"byteOffset":3792,
			"target":34962
		},
		{
			"buffer":0,
			"byteLength":492,
			"byteOffset":5056,
			"target":34963
		},
		{
			"buffer":0,
			"byteLength":2952,
			"byteOffset":5548,
			"target":34962
		},
		{
			"buffer":0,
			"byteLength":2952,
			"byteOffset":8500,
			"target":34962
		},
		{
			"buffer":0,
			"byteLength":1968,
			"byteOffset":11452,
			"target":34962
		},
		{
			"buffer":0,
			"byteLength":1008,
			"byteOffset":13420,
			"target":34963
		}
	],
	"buffers":[
		{
			"byteLength":14428,
			"uri":"pistol-281c137f87eaa6326c9199211bc0970a.bin"
		}
	]
}
